<svg xmlns="http://www.w3.org/2000/svg" version="1.1" xmlns:xlink="http://www.w3.org/1999/xlink" xmlns:svgjs="http://svgjs.com/svgjs" width="512" height="512" x="0" y="0" viewBox="0 0 59 59" style="enable-background:new 0 0 512 512" xml:space="preserve" class=""><circle r="29.5" cx="29.5" cy="29.5" fill="#f65858" shape="circle"/><g transform="matrix(0.6999999999999998,0,0,0.6999999999999998,8.85033418696841,8.704447174072271)"><g fill="none" fill-rule="evenodd"><g fill-rule="nonzero"><path fill="#f0c419" d="M41.476 43.426c-1.864 1.865-21.631 10.819-36.523 14.486A3.989 3.989 0 0 1 .12 53.079c3.667-14.892 12.622-34.658 14.486-36.523z" data-original="#f0c419" class=""/><ellipse cx="28.041" cy="29.991" fill="#d25627" rx="5" ry="19" transform="rotate(-45 28.037 29.999)" data-original="#d25627" class=""/><circle cx="10.363" cy="47.669" r="2" fill="#955ba5" data-original="#955ba5" class=""/><path fill="#955ba5" d="M23.091 26.042a1 1 0 0 1-.707-1.708l6.364-6.363c3.423-3.424 3.859-6.041 1.415-8.486a4.629 4.629 0 0 0-4.158-1.578 5.84 5.84 0 0 0-2.914 1.578 1 1 0 0 1-1.414-1.414 7.788 7.788 0 0 1 3.981-2.134 6.531 6.531 0 0 1 5.919 2.134c3.284 3.284 2.808 7.091-1.415 11.314L23.8 25.749a1 1 0 0 1-.709.293z" data-original="#955ba5" class=""/><path fill="#00798a" d="M49.254 36.648a1 1 0 0 1-.707-1.707 4.706 4.706 0 0 0 0-7.071 4.226 4.226 0 0 0-4.253-1.419 9.994 9.994 0 0 0-4.232 2.833l-5.657 5.657a1 1 0 0 1-1.414-1.414l5.657-5.657a11.845 11.845 0 0 1 5.137-3.353 6.143 6.143 0 0 1 6.176 1.939c3.907 3.906 1.839 8.061 0 9.9a.991.991 0 0 1-.707.292z" data-original="#ff5364" class=""/><path fill="#f0c419" d="M36.527 18.263a1 1 0 0 1-.709-1.705c.262-.264 6.362-6.537 1.342-12.812A1 1 0 1 1 38.721 2.5c6.146 7.681-1.41 15.4-1.488 15.474a.992.992 0 0 1-.706.289z" data-original="#f0c419" class=""/><circle cx="47" cy="17.971" r="3" fill="#00798a" data-original="#ff5364" class=""/><circle cx="32" cy="2" r="2" fill="#00798a" data-original="#3b97d3" class=""/><circle cx="56" cy="38" r="2" fill="#955ba5" data-original="#955ba5" class=""/><path fill="#955ba5" d="M47 6a1 1 0 0 1-1-1V4a1 1 0 0 1 2 0v1a1 1 0 0 1-1 1zM50 8h-1a1 1 0 0 1 0-2h1a1 1 0 0 1 0 2zM47 11a1 1 0 0 1-1-1V9a1 1 0 0 1 2 0v1a1 1 0 0 1-1 1zM45 8h-1a1 1 0 0 1 0-2h1a1 1 0 0 1 0 2z" data-original="#955ba5" class=""/><path fill="#00798a" d="M55 23a1 1 0 0 1-1-1v-1a1 1 0 0 1 2 0v1a1 1 0 0 1-1 1zM58 25h-1a1 1 0 0 1 0-2h1a1 1 0 0 1 0 2zM55 28a1 1 0 0 1-1-1v-1a1 1 0 0 1 2 0v1a1 1 0 0 1-1 1zM53 25h-1a1 1 0 0 1 0-2h1a1 1 0 0 1 0 2z" data-original="#3b97d3" class=""/></g><path d="M33.52 47.64c-2.59 1.18-5.65 2.48-8.93 3.78-.49-.3-1.01-.64-1.55-1.01.239-2.85.96-5.64 2.13-8.25a50.106 50.106 0 0 0 8.35 5.48z" fill=""/><path fill="#00798a" fill-rule="nonzero" d="M33.52 47.64c-2.59 1.18-5.65 2.48-8.93 3.78-.49-.3-1.01-.64-1.55-1.01a55.786 55.786 0 0 1-5.7-4.4c-.89-.8-1.81-1.65-2.74-2.58a53.58 53.58 0 0 1-2.92-3.14 54.215 54.215 0 0 1-5.07-6.84c1.3-3.28 2.6-6.34 3.79-8.93a46.044 46.044 0 0 0 3.63 5.91 57.336 57.336 0 0 0 5.34 6.42c.28.31.58.61.89.92a58.043 58.043 0 0 0 4.91 4.39 50.106 50.106 0 0 0 8.35 5.48z" data-original="#ff5364" class=""/><path fill="#955ba5" fill-rule="nonzero" d="M25.17 42.16a25.328 25.328 0 0 0-2.13 8.25 55.786 55.786 0 0 1-5.7-4.4c.07-3.157.76-6.27 2.03-9.16.28.31.58.61.89.92a58.043 58.043 0 0 0 4.91 4.39z" data-original="#955ba5" class=""/><path fill="#b49aca" fill-rule="nonzero" d="M19.37 36.85a24.092 24.092 0 0 0-2.03 9.16c-.89-.8-1.81-1.65-2.74-2.58a53.58 53.58 0 0 1-2.92-3.14 25.062 25.062 0 0 1 2.35-9.86 57.336 57.336 0 0 0 5.34 6.42z" data-original="#b49aca" class=""/><path fill="#00798a" fill-rule="nonzero" d="M10.95 56.24c-2.05.63-4.07 1.19-6 1.67a3.986 3.986 0 0 1-4.83-4.83c.48-1.93 1.04-3.95 1.67-6a59.507 59.507 0 0 0 9.16 9.16z" data-original="#ff5364" class=""/></g></g></svg>